<svg width="200" height="200" viewBox="0 0 200 200" fill="none" xmlns="http://www.w3.org/2000/svg">
<rect width="200" height="200" rx="94.5" fill="#1F1F1F"/>
<path d="M101.942 105.332H73.6826L73.5303 91.3926H98.21C102.374 91.3926 105.903 90.7832 108.798 89.5645C111.743 88.2949 113.978 86.4922 115.501 84.1562C117.024 81.7695 117.786 78.9004 117.786 75.5488C117.786 71.8418 117.075 68.8203 115.653 66.4844C114.231 64.1484 112.048 62.4473 109.103 61.3809C106.208 60.3145 102.501 59.7812 97.9814 59.7812H79.4717V155.453H60.3525V44.5469H97.9814C104.075 44.5469 109.509 45.1309 114.282 46.2988C119.106 47.4668 123.194 49.2949 126.546 51.7832C129.948 54.2207 132.513 57.3184 134.239 61.0762C136.017 64.834 136.905 69.3027 136.905 74.4824C136.905 79.0527 135.813 83.2422 133.63 87.0508C131.446 90.8086 128.222 93.8809 123.956 96.2676C119.69 98.6543 114.384 100.076 108.036 100.533L101.942 105.332ZM101.104 155.453H67.665L76.2725 140.295H101.104C105.421 140.295 109.026 139.584 111.921 138.162C114.815 136.689 116.974 134.684 118.396 132.145C119.868 129.555 120.604 126.533 120.604 123.08C120.604 119.475 119.97 116.352 118.7 113.711C117.431 111.02 115.425 108.963 112.683 107.541C109.94 106.068 106.36 105.332 101.942 105.332H80.4619L80.6143 91.3926H108.569L112.911 96.6484C119.005 96.8516 124.007 98.1973 127.917 100.686C131.878 103.174 134.823 106.398 136.753 110.359C138.683 114.32 139.647 118.586 139.647 123.156C139.647 130.215 138.099 136.131 135.001 140.904C131.954 145.678 127.562 149.309 121.823 151.797C116.085 154.234 109.179 155.453 101.104 155.453Z" fill="white"/>
</svg>
